<?xml version="1.0" encoding="UTF-8"?> <svg xmlns="http://www.w3.org/2000/svg" viewBox="0 0 935.38 225.42"><defs><style>.cls-1{fill:#fff;}</style></defs><title>mt-logo-full-white</title><g id="Layer_2" data-name="Layer 2"><g id="Layer_1-2" data-name="Layer 1"><polygon class="cls-1" points="49.4 100.28 49.4 112.31 82.42 114.61 82.42 102.58 49.4 100.28"></polygon><polygon class="cls-1" points="33.02 99.13 0 96.82 0 108.85 33.02 111.16 33.02 99.13"></polygon><polygon class="cls-1" points="49.4 185.25 49.65 185.42 82.26 185.42 82.42 185.25 82.42 116.62 49.4 114.31 49.4 185.25"></polygon><polygon class="cls-1" points="35.95 99.33 37.68 111.48 44.52 111.96 46.21 100.05 35.95 99.33"></polygon><polygon class="cls-1" points="48.18 86.16 33.95 85.16 35.67 97.31 46.49 98.07 48.18 86.16"></polygon><polygon class="cls-1" points="82.42 60.48 0 54.72 0 66.75 82.42 72.51 82.42 60.48"></polygon><path class="cls-1" d="M82.42.25,82.26,0H53.69Q53,1.1,41.42,34.15h-.17q-8.47-22.93-8.89-23.69Q28.9.75,28.41,0H.17L0,.25V38.68l82.42,5.76Z"></path><polygon class="cls-1" points="0 185.25 0.17 225.42 32.77 185.42 33.02 185.25 33.02 113.16 0 110.86 0 185.25"></polygon><polygon class="cls-1" points="82.42 100.58 82.42 88.55 49.4 86.24 49.4 98.27 82.42 100.58"></polygon><path class="cls-1" d="M33,79.18h.08l.56,4,14.8,1,.86-6.08h.08v6.15l33,2.31v-12L0,68.75v12l33,2.31Zm-17.27,0a3.34,3.34,0,1,1,3.33-3.34A3.35,3.35,0,0,1,15.75,79.22Z"></path><polygon class="cls-1" points="33.02 85.1 0 82.79 0 94.82 33.02 97.13 33.02 85.1"></polygon><polygon class="cls-1" points="41.01 134.99 41.25 134.99 44.24 113.95 37.96 113.51 41.01 134.99"></polygon><polygon class="cls-1" points="82.42 46.45 0 40.69 0 52.71 82.42 58.48 82.42 46.45"></polygon><polygon class="cls-1" points="94.86 184.4 95.02 184.57 165.83 184.57 166 184.4 166 157.75 165.83 157.5 127.63 157.5 127.63 126.3 165.83 126.3 166 126.13 166 122.46 94.86 117.49 94.86 184.4"></polygon><polygon class="cls-1" points="166 30.34 165.83 30.17 95.02 30.17 94.86 30.34 94.86 45.31 166 50.29 166 30.34"></polygon><polygon class="cls-1" points="166 106.42 166 95.78 165.83 95.61 127.63 95.61 127.63 91.71 94.86 89.42 94.86 101.45 166 106.42"></polygon><polygon class="cls-1" points="127.63 63.64 94.86 61.35 94.86 73.38 127.63 75.67 127.63 63.64"></polygon><path class="cls-1" d="M127.63,77.68,94.86,75.39v12l32.77,2.3Zm-15.88,8.54a3.34,3.34,0,1,1,3.33-3.34A3.35,3.35,0,0,1,111.75,86.22Z"></path><polygon class="cls-1" points="127.63 61.64 127.63 57.07 165.83 57.07 166 56.9 166 52.29 94.86 47.32 94.86 59.35 127.63 61.64"></polygon><polygon class="cls-1" points="94.86 103.45 94.86 115.48 166 120.46 166 108.43 94.86 103.45"></polygon><polygon class="cls-1" points="251.47 30.17 251.22 30 180 30 179.83 30.17 179.83 51.25 251.47 56.26 251.47 30.17"></polygon><polygon class="cls-1" points="199.1 110.74 199.1 122.77 231.95 125.07 231.95 113.04 199.1 110.74"></polygon><polygon class="cls-1" points="199.1 185.25 199.26 185.42 231.79 205.42 231.95 205.25 231.95 127.07 199.1 124.78 199.1 185.25"></polygon><path class="cls-1" d="M232,85l-32.85-2.3v12L232,97Zm-16.3,8.43A3.33,3.33,0,1,1,219,90.07,3.34,3.34,0,0,1,215.65,93.4Z"></path><polygon class="cls-1" points="180 56.9 199.1 56.9 199.1 66.64 231.95 68.93 231.95 56.9 179.83 53.26 179.83 56.73 180 56.9"></polygon><polygon class="cls-1" points="199.1 96.71 199.1 108.74 231.95 111.03 231.95 99 199.1 96.71"></polygon><polygon class="cls-1" points="231.95 82.97 231.95 70.94 199.1 68.64 199.1 80.67 231.95 82.97"></polygon><polygon class="cls-1" points="297.16 73.49 297.16 61.46 264.39 59.17 264.39 71.2 297.16 73.49"></polygon><polygon class="cls-1" points="335.53 76.17 335.53 64.14 302.76 61.85 302.76 73.88 335.53 76.17"></polygon><polygon class="cls-1" points="264.39 101.27 264.39 113.3 335.53 118.28 335.53 106.25 264.39 101.27"></polygon><path class="cls-1" d="M297.16,57.32h5.6v2.53l32.77,2.29V41.89Q317.5,30.25,300,30.25T264.39,41.89V57.17l32.77,2.29Z"></path><polygon class="cls-1" points="264.39 204.4 264.56 204.57 297 184.57 297.16 184.4 297.16 131.63 264.39 129.34 264.39 204.4"></polygon><polygon class="cls-1" points="297.16 87.53 297.16 75.5 264.39 73.2 264.39 85.23 297.16 87.53"></polygon><path class="cls-1" d="M302.76,89.92v5.86h-5.6V89.53l-32.77-2.29v12l71.14,5v-12Zm17.89,11.48A3.33,3.33,0,1,1,324,98.07,3.34,3.34,0,0,1,320.65,101.4Z"></path><polygon class="cls-1" points="302.76 184.4 302.93 184.57 335.29 184.57 335.53 184.4 335.53 134.32 302.76 132.02 302.76 184.4"></polygon><polygon class="cls-1" points="335.53 90.21 335.53 78.18 302.76 75.89 302.76 87.92 335.53 90.21"></polygon><polygon class="cls-1" points="264.39 115.31 264.39 127.34 297.16 129.63 297.16 126.47 302.76 126.47 302.76 130.02 335.53 132.31 335.53 120.28 264.39 115.31"></polygon><polygon class="cls-1" points="348.05 107.12 348.05 119.15 380.84 121.44 380.81 109.41 348.05 107.12"></polygon><polygon class="cls-1" points="348.05 93.09 348.05 105.12 380.81 107.41 380.78 95.38 348.05 93.09"></polygon><polygon class="cls-1" points="380.83 79.34 380.9 78.83 380.74 76.3 380.74 67.31 348.05 65.02 348.05 77.05 380.83 79.34"></polygon><polygon class="cls-1" points="380.77 93.37 380.74 81.34 348.05 79.05 348.05 91.08 380.77 93.37"></polygon><polygon class="cls-1" points="348.05 184.4 348.21 184.57 419.11 184.57 419.27 184.4 419.27 155.14 419.11 154.97 380.9 154.97 380.9 145.28 380.88 137.49 348.05 135.19 348.05 184.4"></polygon><polygon class="cls-1" points="348.05 121.16 348.05 133.19 380.88 135.48 380.85 123.45 348.05 121.16"></polygon><polygon class="cls-1" points="380.74 50.08 380.57 49.92 348.21 29.92 348.05 30.08 348.05 63.02 380.74 65.3 380.74 50.08"></polygon><polygon class="cls-1" points="453.2 128.51 453.2 140.54 486.05 142.84 486.05 130.81 453.2 128.51"></polygon><polygon class="cls-1" points="486.05 26.9 505.32 26.9 505.57 26.73 505.57 0.17 505.32 0 434.1 0 433.93 0.17 433.93 26.73 434.1 26.9 453.2 26.9 453.2 70.37 486.05 72.66 486.05 26.9"></polygon><path class="cls-1" d="M486.05,100.73v-12L453.2,86.41v12ZM469.41,90.07a3.34,3.34,0,1,1-3.33,3.33A3.33,3.33,0,0,1,469.41,90.07Z"></path><polygon class="cls-1" points="486.05 86.7 486.05 74.67 453.2 72.37 453.2 84.4 486.05 86.7"></polygon><polygon class="cls-1" points="453.2 185.25 453.36 185.42 485.89 225.42 486.05 185.25 486.05 144.84 453.2 142.54 453.2 185.25"></polygon><path class="cls-1" d="M453.2,114.47v12l32.85,2.3v-12Zm14.21,10.27a3.34,3.34,0,1,1,3.34-3.34A3.34,3.34,0,0,1,467.41,124.74Z"></path><polygon class="cls-1" points="453.2 100.44 453.2 112.47 486.05 114.77 486.05 102.74 453.2 100.44"></polygon><polygon class="cls-1" points="588.81 107.92 588.81 95.89 584.79 95.61 550.44 95.61 550.44 93.2 517.67 90.91 517.67 102.94 588.81 107.92"></polygon><polygon class="cls-1" points="588.65 126.3 588.81 126.13 588.81 123.96 517.67 118.98 517.67 131.01 550.44 133.3 550.44 126.3 588.65 126.3"></polygon><polygon class="cls-1" points="550.44 91.2 550.44 79.17 517.67 76.88 517.67 88.91 550.44 91.2"></polygon><polygon class="cls-1" points="517.67 133.02 517.67 145.05 550.44 147.34 550.44 135.31 517.67 133.02"></polygon><polygon class="cls-1" points="550.44 57.07 588.65 57.07 588.81 56.9 588.81 30.34 588.65 30.17 517.84 30.17 517.67 30.34 517.67 74.88 550.44 77.17 550.44 57.07"></polygon><polygon class="cls-1" points="517.67 104.95 517.67 116.98 588.81 121.95 588.81 109.92 517.67 104.95"></polygon><polygon class="cls-1" points="517.67 184.4 517.84 184.57 588.65 184.57 588.81 184.4 588.81 157.75 588.65 157.5 550.44 157.5 550.44 149.34 517.67 147.05 517.67 184.4"></polygon><polygon class="cls-1" points="634.02 111.08 634.02 109.18 634.1 109.18 634.69 111.13 649.11 112.13 650.32 108.09 650.4 108.09 650.4 112.22 683.42 114.53 683.42 102.5 601 96.74 601 108.77 634.02 111.08"></polygon><polygon class="cls-1" points="650.4 142.3 650.4 154.33 683.42 156.63 683.42 144.6 650.4 142.3"></polygon><polygon class="cls-1" points="601 124.81 601 136.84 634.02 139.15 634.02 127.12 601 124.81"></polygon><polygon class="cls-1" points="642 134.99 642.25 134.99 644.39 127.84 639.71 127.52 642 134.99"></polygon><polygon class="cls-1" points="601 185.25 601.16 185.42 633.77 185.42 634.02 185.25 634.02 155.19 601 152.88 601 185.25"></polygon><polygon class="cls-1" points="650.4 128.26 650.4 140.29 683.42 142.6 683.42 130.57 650.4 128.26"></polygon><polygon class="cls-1" points="650.4 185.25 650.65 185.42 683.25 205.42 683.42 205.25 683.42 158.64 650.4 156.33 650.4 185.25"></polygon><polygon class="cls-1" points="601 138.84 601 150.87 634.02 153.18 634.02 141.15 601 138.84"></polygon><polygon class="cls-1" points="650.4 114.23 650.4 126.26 683.42 128.57 683.42 116.54 650.4 114.23"></polygon><path class="cls-1" d="M683.42,30.25l-.17-.25H654.68Q654,31.1,642.42,64.15h-.17q-8.47-22.94-8.89-23.69-3.47-9.7-4-10.46H601.16l-.16.25V80.7l82.42,5.76Z"></path><polygon class="cls-1" points="683.42 100.5 683.42 88.47 601 82.71 601 94.73 683.42 100.5"></polygon><polygon class="cls-1" points="635.32 113.17 639.09 125.47 644.98 125.88 648.52 114.1 635.32 113.17"></polygon><path class="cls-1" d="M601,110.77v12l33,2.31v-12Zm16.41,11a3.34,3.34,0,1,1,3.34-3.34A3.34,3.34,0,0,1,617.41,121.74Z"></path><polygon class="cls-1" points="695.85 145.47 695.85 157.5 728.62 159.79 728.62 147.77 695.85 145.47"></polygon><path class="cls-1" d="M728.62,57.07h5.6V90l32.86,2.29V41.64a66.33,66.33,0,0,0-7.25-4.3q-15-7.26-26.68-7.26H696l-.17.17V87.33l32.77,2.29Z"></path><path class="cls-1" d="M695.85,129.44l32.77,2.29V126.3h4.53a28.47,28.47,0,0,0,4.94-.42,58.19,58.19,0,0,0,16.32-4.38l-58.56-4.09Zm16.56-8.37a3.34,3.34,0,1,1-3.33,3.33A3.33,3.33,0,0,1,712.41,121.07Z"></path><polygon class="cls-1" points="767.08 106.35 767.08 94.32 734.22 92.02 734.22 95.52 728.62 95.52 728.62 91.63 695.85 89.34 695.85 101.37 767.08 106.35"></polygon><polygon class="cls-1" points="695.85 204.4 696.02 204.57 728.46 184.57 728.62 184.4 728.62 161.8 695.85 159.51 695.85 204.4"></polygon><path class="cls-1" d="M758.22,119.76a90.11,90.11,0,0,0,8.86-5v-6.4l-71.23-5v12Z"></path><polygon class="cls-1" points="695.85 131.44 695.85 143.47 728.62 145.76 728.62 133.73 695.85 131.44"></polygon><polygon class="cls-1" points="812.69 79.92 812.86 78.83 812.69 76.3 812.69 10.08 812.53 9.92 780.17 29.92 780 30.08 780 93.22 812.73 95.5 812.69 79.92"></polygon><polygon class="cls-1" points="780 184.4 780.17 184.57 851.06 184.57 851.23 184.4 851.23 170.37 780 165.39 780 184.4"></polygon><polygon class="cls-1" points="812.77 109.54 812.74 97.51 780 95.22 780 107.25 812.77 109.54"></polygon><polygon class="cls-1" points="780 121.28 812.8 123.58 812.77 111.55 780 109.26 780 121.28"></polygon><polygon class="cls-1" points="831.7 154.97 812.86 154.97 812.86 153.66 780 151.36 780 163.39 851.23 168.37 851.23 156.34 831.7 154.97"></polygon><path class="cls-1" d="M780,135.32l32.84,2.3,0-12L780,123.29Zm15.41-8.25a3.34,3.34,0,1,1-3.33,3.33A3.33,3.33,0,0,1,795.41,127.07Z"></path><polygon class="cls-1" points="780 149.35 812.86 151.65 812.86 145.28 812.84 139.62 780 137.32 780 149.35"></polygon><path class="cls-1" d="M864.24,141.21,897,143.5v-12l-32.77-2.29Zm16.17-8.14a3.34,3.34,0,1,1-3.33,3.33A3.33,3.33,0,0,1,880.41,133.07Z"></path><polygon class="cls-1" points="864.24 184.4 864.4 184.57 935.22 184.57 935.38 184.4 935.38 176.26 864.24 171.28 864.24 184.4"></polygon><polygon class="cls-1" points="864.24 101.11 864.24 113.14 935.38 118.11 935.38 106.08 864.24 101.11"></polygon><polygon class="cls-1" points="935.38 95.78 935.22 95.61 897.01 95.61 897.01 57.07 935.22 57.07 935.38 56.9 935.38 30.34 935.22 30.17 864.4 30.17 864.24 30.34 864.24 99.11 935.38 104.08 935.38 95.78"></polygon><polygon class="cls-1" points="864.24 127.17 897.01 129.47 897.01 126.3 935.22 126.3 935.38 126.13 935.38 120.12 864.24 115.14 864.24 127.17"></polygon><polygon class="cls-1" points="864.24 155.24 935.38 160.22 935.38 157.75 935.22 157.5 897.01 157.5 897.01 145.5 864.24 143.21 864.24 155.24"></polygon><polygon class="cls-1" points="864.24 169.28 935.38 174.25 935.38 162.22 864.24 157.25 864.24 169.28"></polygon></g></g></svg> 